# Blender v2.74 (sub 0) OBJ File: ''
# www.blender.org
mtllib blocks.mtl
o Cube.001_Cube.002
v 0.995351 0.600000 0.026813
v 1.391955 0.600000 -0.423416
v 1.391955 0.000000 -0.423416
v 0.995351 -0.000000 0.026812
v 1.842183 0.600000 -0.026812
v 1.842183 0.000000 -0.026812
v 1.445580 0.600000 0.423416
v 1.445580 -0.000000 0.423416
v -0.034471 0.600000 0.422861
v -0.422861 0.600000 -0.034471
v -0.422861 0.000000 -0.034471
v -0.034471 -0.000000 0.422861
v 0.034471 0.600000 -0.422861
v 0.034471 0.000000 -0.422861
v 0.422861 0.600000 0.034471
v 0.422861 -0.000000 0.034471
v -1.121343 -0.574646 -2.746127
v -0.914214 -0.808863 -3.234518
v -0.882440 -0.894443 -3.166771
v 1.121343 0.574646 -2.346156
v 1.360247 0.254849 -2.766799
v 1.328473 0.340429 -2.834547
v -0.859847 -0.967734 -3.082858
v 1.382840 0.181559 -2.682887
v -0.847303 -1.025918 -2.986005
v 1.395384 0.123375 -2.586034
v -0.845290 -1.066760 -2.879934
v 1.397397 0.082532 -2.479962
v -0.853886 -1.088690 -2.768720
v 1.388801 0.060602 -2.368749
v -0.872759 -1.090867 -2.656638
v 1.369927 0.058426 -2.256667
v -0.901187 -1.073204 -2.547996
v 1.341500 0.076088 -2.148024
v -0.938074 -1.036383 -2.446967
v 1.304613 0.112909 -2.046996
v -0.982004 -0.981818 -2.357435
v 1.260682 0.167474 -1.957464
v -1.031289 -0.911605 -2.282840
v 1.211397 0.237688 -1.882869
v -1.084035 -0.828443 -2.226049
v 1.158651 0.320850 -1.826078
v -1.138215 -0.735527 -2.189245
v 1.104472 0.413765 -1.789273
v -1.191746 -0.636429 -2.173841
v 1.050941 0.512863 -1.773870
v -1.242572 -0.534957 -2.180429
v 1.000115 0.614336 -1.780458
v -1.288738 -0.435010 -2.208758
v 0.953948 0.714282 -1.808786
v -1.328473 -0.340429 -2.257736
v 0.914214 0.808863 -1.857765
v -1.360247 -0.254849 -2.325484
v 0.882440 0.894444 -1.925513
v -1.382840 -0.181558 -2.409397
v 0.859847 0.967734 -2.009426
v -1.395384 -0.123374 -2.506250
v 0.847303 1.025918 -2.106279
v -1.397397 -0.082532 -2.612321
v 0.845290 1.066761 -2.212350
v -1.388801 -0.060601 -2.723535
v 0.853886 1.088691 -2.323564
v -1.369927 -0.058425 -2.835617
v 0.872760 1.090867 -2.435646
v -1.341500 -0.076088 -2.944259
v 0.901187 1.073205 -2.544288
v -1.304613 -0.112909 -3.045288
v 0.938074 1.036384 -2.645317
v -1.260682 -0.167475 -3.134820
v 0.982005 0.981818 -2.734849
v -1.211397 -0.237688 -3.209415
v 1.031290 0.911605 -2.809444
v -1.158651 -0.320850 -3.266206
v 1.084036 0.828442 -2.866235
v -1.104471 -0.413766 -3.303010
v 1.138215 0.735527 -2.903039
v -1.050940 -0.512863 -3.318414
v 1.191746 0.636429 -2.918443
v -1.000115 -0.614336 -3.311825
v 1.242572 0.534957 -2.911854
v -0.953948 -0.714283 -3.283497
v 1.288739 0.435010 -2.883526
v 0.995351 0.600000 -1.396030
v 1.391955 0.600000 -1.846259
v 1.391955 0.000000 -1.846259
v 0.995351 0.000000 -1.396030
v 1.842183 0.600000 -1.449655
v 1.842183 0.000000 -1.449655
v 1.445580 0.600000 -0.999427
v 1.445580 0.000000 -0.999427
vn -0.878900 -0.450400 -0.156800
vn 0.878900 0.450400 0.156800
vn 0.386400 -0.480000 -0.787600
vn 0.433500 -0.617600 -0.656200
vn 0.464000 -0.731500 -0.499600
vn 0.476600 -0.817300 -0.323800
vn 0.470900 -0.871700 -0.135500
vn 0.447100 -0.892600 0.058000
vn 0.406100 -0.879200 0.249200
vn 0.349500 -0.832000 0.430800
vn 0.279500 -0.752800 0.595900
vn 0.198700 -0.644700 0.738100
vn 0.110300 -0.511800 0.852000
vn 0.017700 -0.359300 0.933100
vn -0.075600 -0.192900 0.978300
vn -0.166000 -0.019100 0.985900
vn -0.250100 0.155400 0.955700
vn -0.324500 0.323900 0.888700
vn -0.386400 0.480000 0.787600
vn -0.433500 0.617600 0.656200
vn -0.464000 0.731500 0.499600
vn -0.476600 0.817300 0.323800
vn -0.470900 0.871700 0.135500
vn -0.447100 0.892600 -0.058000
vn -0.406100 0.879200 -0.249200
vn -0.349500 0.832000 -0.430800
vn -0.279500 0.752800 -0.595900
vn -0.198700 0.644700 -0.738100
vn -0.110300 0.511800 -0.852000
vn -0.017700 0.359300 -0.933100
vn 0.075600 0.192900 -0.978300
vn 0.166000 0.019100 -0.985900
vn 0.250100 -0.155400 -0.955700
vn 0.324500 -0.323900 -0.888700
vn -0.750400 0.000000 -0.661000
vn 0.661000 0.000000 -0.750400
vn 0.750400 0.000000 0.661000
vn -0.661000 0.000000 0.750400
vn 0.000000 -1.000000 -0.000000
vn 0.000000 1.000000 0.000000
vn -0.762200 -0.000000 0.647300
vn -0.647300 0.000000 -0.762200
vn 0.762200 0.000000 -0.647300
vn 0.647300 -0.000000 0.762200
usemtl Material.001
s 1
f 17//1 18//1 19//1
f 20//2 21//2 22//2
f 18//3 22//3 21//3 19//3
f 17//1 19//1 23//1
f 20//2 24//2 21//2
f 19//4 21//4 24//4 23//4
f 17//1 23//1 25//1
f 20//2 26//2 24//2
f 23//5 24//5 26//5 25//5
f 17//1 25//1 27//1
f 20//2 28//2 26//2
f 25//6 26//6 28//6 27//6
f 17//1 27//1 29//1
f 20//2 30//2 28//2
f 27//7 28//7 30//7 29//7
f 17//1 29//1 31//1
f 20//2 32//2 30//2
f 29//8 30//8 32//8 31//8
f 17//1 31//1 33//1
f 20//2 34//2 32//2
f 31//9 32//9 34//9 33//9
f 17//1 33//1 35//1
f 20//2 36//2 34//2
f 33//10 34//10 36//10 35//10
f 17//1 35//1 37//1
f 20//2 38//2 36//2
f 35//11 36//11 38//11 37//11
f 17//1 37//1 39//1
f 20//2 40//2 38//2
f 37//12 38//12 40//12 39//12
f 17//1 39//1 41//1
f 20//2 42//2 40//2
f 39//13 40//13 42//13 41//13
f 17//1 41//1 43//1
f 20//2 44//2 42//2
f 41//14 42//14 44//14 43//14
f 17//1 43//1 45//1
f 20//2 46//2 44//2
f 43//15 44//15 46//15 45//15
f 17//1 45//1 47//1
f 20//2 48//2 46//2
f 45//16 46//16 48//16 47//16
f 17//1 47//1 49//1
f 20//2 50//2 48//2
f 47//17 48//17 50//17 49//17
f 17//1 49//1 51//1
f 20//2 52//2 50//2
f 49//18 50//18 52//18 51//18
f 17//1 51//1 53//1
f 20//2 54//2 52//2
f 51//19 52//19 54//19 53//19
f 17//1 53//1 55//1
f 20//2 56//2 54//2
f 53//20 54//20 56//20 55//20
f 17//1 55//1 57//1
f 20//2 58//2 56//2
f 55//21 56//21 58//21 57//21
f 17//1 57//1 59//1
f 20//2 60//2 58//2
f 57//22 58//22 60//22 59//22
f 17//1 59//1 61//1
f 20//2 62//2 60//2
f 59//23 60//23 62//23 61//23
f 17//1 61//1 63//1
f 20//2 64//2 62//2
f 61//24 62//24 64//24 63//24
f 17//1 63//1 65//1
f 20//2 66//2 64//2
f 63//25 64//25 66//25 65//25
f 17//1 65//1 67//1
f 20//2 68//2 66//2
f 65//26 66//26 68//26 67//26
f 17//1 67//1 69//1
f 20//2 70//2 68//2
f 67//27 68//27 70//27 69//27
f 17//1 69//1 71//1
f 20//2 72//2 70//2
f 69//28 70//28 72//28 71//28
f 17//1 71//1 73//1
f 20//2 74//2 72//2
f 71//29 72//29 74//29 73//29
f 17//1 73//1 75//1
f 20//2 76//2 74//2
f 73//30 74//30 76//30 75//30
f 17//1 75//1 77//1
f 20//2 78//2 76//2
f 75//31 76//31 78//31 77//31
f 17//1 77//1 79//1
f 20//2 80//2 78//2
f 77//32 78//32 80//32 79//32
f 17//1 79//1 81//1
f 20//2 82//2 80//2
f 79//33 80//33 82//33 81//33
f 17//1 81//1 18//1
f 20//2 22//2 82//2
f 81//34 82//34 22//34 18//34
usemtl Material.003
f 1//35 2//35 3//35 4//35
f 2//36 5//36 6//36 3//36
f 5//37 7//37 8//37 6//37
f 7//38 1//38 4//38 8//38
f 4//39 3//39 6//39 8//39
f 7//40 5//40 2//40 1//40
usemtl Material.002
f 83//35 84//35 85//35 86//35
f 84//36 87//36 88//36 85//36
f 87//37 89//37 90//37 88//37
f 89//38 83//38 86//38 90//38
f 86//39 85//39 88//39 90//39
f 89//40 87//40 84//40 83//40
usemtl Material.004
f 9//41 10//41 11//41 12//41
f 10//42 13//42 14//42 11//42
f 13//43 15//43 16//43 14//43
f 15//44 9//44 12//44 16//44
f 12//39 11//39 14//39 16//39
f 15//40 13//40 10//40 9//40
