# Blender v2.74 (sub 0) OBJ File: ''
# www.blender.org
mtllib cornell.mtl
o Cube.001_Cube.003
v 1.500000 1.700000 -2.500000
v 1.500000 1.700000 0.500000
v -1.500000 1.700000 0.500000
v -1.500000 1.700000 -2.500000
v 1.500000 -1.300000 -2.500000
v 1.500000 1.700000 -2.500000
v -1.500000 1.700000 -2.500000
v -1.500000 -1.300000 -2.500000
v -1.165685 0.609215 -1.300000
v -1.165685 -1.285185 -1.300000
v -0.600000 -1.285185 -0.734315
v -0.600000 0.609215 -1.865685
v -0.600000 -1.285185 -1.865685
v -0.034315 0.609215 -1.300000
v -0.034315 -1.285185 -1.300000
v -0.600000 0.609215 -0.734315
v 0.234315 -0.393990 -0.746986
v 0.234315 -1.289990 -0.746986
v 0.800000 -1.289990 -0.181301
v 0.800000 -0.393990 -1.312672
v 0.800000 -1.289990 -1.312672
v 1.365685 -0.393990 -0.746986
v 1.365685 -1.289990 -0.746986
v 0.800000 -0.393990 -0.181301
v -1.500000 -1.300000 -2.500000
v -1.500000 1.700000 -2.500000
v -1.500000 1.700000 0.500000
v -1.500000 -1.300000 0.500000
v 1.500000 -1.300000 0.500000
v 1.500000 -1.300000 -2.500000
v -1.500000 -1.300000 -2.500000
v -1.500000 -1.300000 0.500000
v 1.500000 -1.300000 0.500000
v 1.500000 1.700000 0.500000
v 1.500000 1.700000 -2.500000
v 1.500000 -1.300000 -2.500000
vn -0.707100 -0.000000 0.707100
vn -0.707100 0.000000 -0.707100
vn 0.707100 0.000000 -0.707100
vn 0.707100 -0.000000 0.707100
vn -0.000000 -1.000000 -0.000000
vn 0.000000 1.000000 0.000000
vn 0.000000 0.000000 1.000000
vn 1.000000 0.000000 0.000000
vn -1.000000 0.000000 0.000000
usemtl yellowish
s 1
f 9//1 10//1 11//1
f 12//2 13//2 10//2
f 14//3 15//3 13//3
f 16//4 11//4 15//4
f 11//5 10//5 13//5
f 12//6 9//6 16//6
f 16//1 9//1 11//1
f 9//2 12//2 10//2
f 12//3 14//3 13//3
f 14//4 16//4 15//4
f 15//5 11//5 13//5
f 14//6 12//6 16//6
f 17//1 18//1 19//1
f 20//2 21//2 18//2
f 22//3 23//3 21//3
f 24//4 19//4 23//4
f 18//5 21//5 23//5
f 22//6 20//6 17//6
f 24//1 17//1 19//1
f 17//2 20//2 18//2
f 20//3 22//3 21//3
f 22//4 24//4 23//4
f 19//5 18//5 23//5
f 24//6 22//6 17//6
usemtl white
f 1//5 2//5 3//5
f 4//5 1//5 3//5
f 5//7 6//7 7//7
f 8//7 5//7 7//7
f 29//6 30//6 31//6
f 32//6 29//6 31//6
usemtl red
f 25//8 26//8 27//8
f 28//8 25//8 27//8
usemtl green
f 33//9 34//9 35//9
f 36//9 33//9 35//9
