# Blender v2.74 (sub 0) OBJ File: ''
# www.blender.org
mtllib cube.mtl
o Cube
v -0.142995 0.000000 -1.726138
v 0.766044 -1.414214 -0.642788
v -0.766045 -1.414213 0.642788
v -1.675083 0.000000 -0.440563
v 0.766045 1.414213 -0.642788
v 1.675083 -0.000001 0.440563
v 0.142994 0.000000 1.726138
v -0.766044 1.414214 0.642788
vn -0.454500 -0.707100 -0.541700
vn 0.454500 0.707100 0.541700
vn 0.766000 -0.000000 -0.642800
vn 0.454500 -0.707100 0.541700
vn -0.766000 0.000000 0.642800
vn -0.454500 0.707100 -0.541700
usemtl Material
s off
f 1//1 2//1 3//1 4//1
f 5//2 8//2 7//2 6//2
f 1//3 5//3 6//3 2//3
f 2//4 6//4 7//4 3//4
f 3//5 7//5 8//5 4//5
f 5//6 1//6 4//6 8//6
