# Blender v2.74 (sub 0) OBJ File: ''
# www.blender.org
mtllib reflectivescene.mtl
o Sphere
v -2.000000 -2.000000 2.000000
v -2.000000 -2.000000 -2.000000
v -2.000000 2.000000 -2.000000
v -2.000000 2.000000 2.000000
v 2.000000 2.000000 -2.000000
v 2.000000 -2.000000 -2.000000
v 2.000000 -2.000000 2.000000
v 2.000000 2.000000 2.000000
v -0.382683 -1.194174 0.228499
v -0.707107 -0.977401 0.228499
v -0.653281 -0.977401 -0.042099
v -0.353553 -1.194174 0.082052
v -0.923880 -0.652978 0.228499
v -0.853553 -0.652978 -0.125054
v -1.000000 -0.270294 0.228499
v -0.923880 -0.270294 -0.154184
v -0.923880 0.112389 0.228499
v -0.853553 0.112389 -0.125054
v -0.707107 0.436812 0.228499
v -0.653281 0.436812 -0.042099
v -0.382683 0.653585 0.228499
v -0.353553 0.653585 0.082052
v -0.500000 -0.977401 -0.271501
v -0.270598 -1.194174 -0.042099
v -0.653281 -0.652978 -0.424782
v -0.707107 -0.270294 -0.478608
v -0.653281 0.112389 -0.424782
v -0.500000 0.436812 -0.271501
v -0.270598 0.653585 -0.042099
v -0.270598 -0.977401 -0.424782
v -0.146447 -1.194174 -0.125054
v -0.353553 -0.652978 -0.625054
v -0.382683 -0.270294 -0.695380
v -0.353553 0.112389 -0.625054
v -0.270598 0.436812 -0.424782
v -0.146447 0.653585 -0.125054
v 0.000000 -0.977401 -0.478608
v 0.000000 -1.194174 -0.154184
v 0.000000 -0.652978 -0.695380
v 0.000000 -0.270294 -0.771501
v 0.000000 0.112389 -0.695380
v 0.000000 0.436812 -0.478608
v 0.000000 0.653585 -0.154184
v 0.270598 -0.977401 -0.424782
v 0.146446 -1.194174 -0.125054
v 0.353553 -0.652978 -0.625054
v 0.382683 -0.270294 -0.695380
v 0.353553 0.112389 -0.625054
v 0.270598 0.436812 -0.424782
v 0.146446 0.653585 -0.125054
v 0.500000 -0.977401 -0.271501
v 0.270598 -1.194174 -0.042099
v 0.653281 -0.652978 -0.424782
v 0.707107 -0.270294 -0.478607
v 0.653281 0.112389 -0.424782
v 0.500000 0.436812 -0.271501
v 0.270598 0.653585 -0.042099
v 0.653281 -0.977401 -0.042099
v 0.353553 -1.194174 0.082053
v 0.853553 -0.652978 -0.125054
v 0.923879 -0.270294 -0.154184
v 0.853553 0.112389 -0.125054
v 0.653281 0.436812 -0.042099
v 0.353553 0.653585 0.082053
v 0.707106 -0.977401 0.228499
v 0.382683 -1.194174 0.228499
v 0.923879 -0.652978 0.228499
v 1.000000 -0.270294 0.228499
v 0.923879 0.112389 0.228499
v 0.707106 0.436812 0.228499
v 0.382683 0.653585 0.228499
v 0.653281 -0.977401 0.499097
v 0.353553 -1.194174 0.374946
v 0.853553 -0.652978 0.582053
v 0.923879 -0.270294 0.611183
v 0.853553 0.112389 0.582053
v 0.653281 0.436812 0.499097
v 0.353553 0.653585 0.374946
v 0.499999 -0.977401 0.728499
v 0.270598 -1.194174 0.499097
v 0.653281 -0.652978 0.881781
v 0.707106 -0.270294 0.935606
v 0.653281 0.112389 0.881781
v 0.499999 0.436812 0.728499
v 0.270598 0.653585 0.499097
v 0.270597 -0.977401 0.881780
v 0.146446 -1.194174 0.582052
v 0.353553 -0.652978 1.082052
v 0.382683 -0.270294 1.152378
v 0.353553 0.112389 1.082052
v 0.270597 0.436812 0.881780
v 0.146446 0.653585 0.582052
v 0.000000 -0.977401 0.935605
v 0.000000 -1.194174 0.611182
v -0.000001 -0.652978 1.152378
v -0.000001 -0.270294 1.228499
v -0.000001 0.112389 1.152378
v 0.000000 0.436812 0.935605
v 0.000000 0.653585 0.611182
v -0.270598 -0.977401 0.881780
v -0.146447 -1.194174 0.582052
v -0.353554 -0.652978 1.082052
v -0.382684 -0.270294 1.152378
v -0.353554 0.112389 1.082052
v -0.270598 0.436812 0.881780
v -0.146447 0.653585 0.582052
v -0.500000 -0.977401 0.728498
v -0.270598 -1.194174 0.499097
v -0.653282 -0.652978 0.881780
v -0.707107 -0.270294 0.935605
v -0.653282 0.112389 0.881780
v -0.500000 0.436812 0.728498
v -0.270598 0.653585 0.499097
v -0.653281 -0.977401 0.499097
v -0.353553 -1.194174 0.374945
v -0.853553 -0.652978 0.582052
v -0.923880 -0.270294 0.611182
v -0.853553 0.112389 0.582052
v -0.653281 0.436812 0.499097
v -0.353553 0.653585 0.374945
v 0.000000 -1.270294 0.228499
v 0.000000 0.729706 0.228499
vn -0.552200 -0.826400 -0.109800
vn -0.820300 -0.548100 -0.163200
vn -0.962600 -0.191500 -0.191500
vn -0.962600 0.191500 -0.191500
vn -0.820300 0.548100 -0.163200
vn -0.552200 0.826400 -0.109800
vn -0.468100 -0.826400 -0.312800
vn -0.695400 -0.548100 -0.464700
vn -0.816100 -0.191500 -0.545300
vn -0.816100 0.191500 -0.545300
vn -0.695400 0.548100 -0.464700
vn -0.468100 0.826400 -0.312800
vn -0.312800 -0.826400 -0.468100
vn -0.464700 -0.548100 -0.695400
vn -0.545300 -0.191500 -0.816100
vn -0.545300 0.191500 -0.816100
vn -0.464700 0.548100 -0.695400
vn -0.312800 0.826400 -0.468100
vn -0.109800 -0.826400 -0.552200
vn -0.163200 -0.548100 -0.820300
vn -0.191500 -0.191500 -0.962600
vn -0.191500 0.191500 -0.962600
vn -0.163200 0.548100 -0.820300
vn -0.109800 0.826400 -0.552200
vn 0.109800 -0.826400 -0.552200
vn 0.163200 -0.548100 -0.820300
vn 0.191500 -0.191500 -0.962600
vn 0.191500 0.191500 -0.962600
vn 0.163200 0.548100 -0.820300
vn 0.109800 0.826400 -0.552200
vn 0.312800 -0.826400 -0.468100
vn 0.464700 -0.548100 -0.695400
vn 0.545300 -0.191500 -0.816100
vn 0.545300 0.191500 -0.816100
vn 0.464700 0.548100 -0.695400
vn 0.312800 0.826400 -0.468100
vn 0.468100 -0.826400 -0.312800
vn 0.695400 -0.548100 -0.464700
vn 0.816100 -0.191500 -0.545300
vn 0.816100 0.191500 -0.545300
vn 0.695400 0.548100 -0.464700
vn 0.468100 0.826400 -0.312800
vn 0.552200 -0.826400 -0.109800
vn 0.820300 -0.548100 -0.163200
vn 0.962600 -0.191500 -0.191500
vn 0.962600 0.191500 -0.191500
vn 0.820300 0.548100 -0.163200
vn 0.552200 0.826400 -0.109800
vn 0.552200 -0.826400 0.109800
vn 0.820300 -0.548100 0.163200
vn 0.962600 -0.191500 0.191500
vn 0.962600 0.191500 0.191500
vn 0.820300 0.548100 0.163200
vn 0.552200 0.826400 0.109800
vn 0.468100 -0.826400 0.312800
vn 0.695400 -0.548100 0.464700
vn 0.816100 -0.191500 0.545300
vn 0.816100 0.191500 0.545300
vn 0.695400 0.548100 0.464700
vn 0.468100 0.826400 0.312800
vn 0.312800 -0.826400 0.468100
vn 0.464700 -0.548100 0.695400
vn 0.545300 -0.191500 0.816100
vn 0.545300 0.191500 0.816100
vn 0.464700 0.548100 0.695400
vn 0.312800 0.826400 0.468100
vn 0.109800 -0.826400 0.552200
vn 0.163200 -0.548100 0.820300
vn 0.191500 -0.191500 0.962600
vn 0.191500 0.191500 0.962600
vn 0.163200 0.548100 0.820300
vn 0.109800 0.826400 0.552200
vn -0.109800 -0.826400 0.552200
vn -0.163200 -0.548100 0.820300
vn -0.191500 -0.191500 0.962600
vn -0.191500 0.191500 0.962600
vn -0.163200 0.548100 0.820300
vn -0.109800 0.826400 0.552200
vn -0.312800 -0.826400 0.468100
vn -0.464700 -0.548100 0.695400
vn -0.545300 -0.191500 0.816100
vn -0.545300 0.191500 0.816100
vn -0.464700 0.548100 0.695400
vn -0.312800 0.826400 0.468100
vn -0.468100 -0.826400 0.312800
vn -0.695400 -0.548100 0.464700
vn -0.816100 -0.191500 0.545300
vn -0.816100 0.191500 0.545300
vn -0.695400 0.548100 0.464700
vn -0.468100 0.826400 0.312800
vn -0.194900 -0.980000 -0.038800
vn -0.194900 0.980000 -0.038800
vn -0.165300 -0.980000 -0.110400
vn -0.165300 0.980000 -0.110400
vn -0.110400 -0.980000 -0.165300
vn -0.110400 0.980000 -0.165300
vn -0.038800 -0.980000 -0.194900
vn -0.038800 0.980000 -0.194900
vn 0.038800 -0.980000 -0.194900
vn 0.038800 0.980000 -0.194900
vn 0.110400 -0.980000 -0.165300
vn 0.110400 0.980000 -0.165300
vn 0.165300 -0.980000 -0.110400
vn 0.165300 0.980000 -0.110400
vn 0.194900 -0.980000 -0.038800
vn 0.194900 0.980000 -0.038800
vn 0.194900 -0.980000 0.038800
vn 0.194900 0.980000 0.038800
vn 0.165300 -0.980000 0.110400
vn 0.165300 0.980000 0.110400
vn 0.110400 -0.980000 0.165300
vn 0.110400 0.980000 0.165300
vn 0.038800 -0.980000 0.194900
vn 0.038800 0.980000 0.194900
vn -0.038800 -0.980000 0.194900
vn -0.038800 0.980000 0.194900
vn -0.110400 -0.980000 0.165300
vn -0.110400 0.980000 0.165300
vn -0.165300 -0.980000 0.110400
vn -0.165300 0.980000 0.110400
vn -0.194900 -0.980000 0.038800
vn -0.552200 -0.826400 0.109800
vn -0.820300 -0.548100 0.163200
vn -0.962600 -0.191500 0.191500
vn -0.962600 0.191500 0.191500
vn -0.820300 0.548100 0.163200
vn -0.552200 0.826400 0.109800
vn -0.194900 0.980000 0.038800
vn -1.000000 -0.000000 0.000000
vn 0.000000 -0.000000 1.000000
vn 0.000000 1.000000 0.000000
vn 1.000000 0.000000 0.000000
usemtl ball
s off
f 9//1 10//1 11//1 12//1
f 10//2 13//2 14//2 11//2
f 13//3 15//3 16//3 14//3
f 15//4 17//4 18//4 16//4
f 17//5 19//5 20//5 18//5
f 19//6 21//6 22//6 20//6
f 12//7 11//7 23//7 24//7
f 11//8 14//8 25//8 23//8
f 14//9 16//9 26//9 25//9
f 16//10 18//10 27//10 26//10
f 18//11 20//11 28//11 27//11
f 20//12 22//12 29//12 28//12
f 24//13 23//13 30//13 31//13
f 23//14 25//14 32//14 30//14
f 25//15 26//15 33//15 32//15
f 26//16 27//16 34//16 33//16
f 27//17 28//17 35//17 34//17
f 28//18 29//18 36//18 35//18
f 31//19 30//19 37//19 38//19
f 30//20 32//20 39//20 37//20
f 32//21 33//21 40//21 39//21
f 33//22 34//22 41//22 40//22
f 34//23 35//23 42//23 41//23
f 35//24 36//24 43//24 42//24
f 38//25 37//25 44//25 45//25
f 37//26 39//26 46//26 44//26
f 39//27 40//27 47//27 46//27
f 40//28 41//28 48//28 47//28
f 41//29 42//29 49//29 48//29
f 42//30 43//30 50//30 49//30
f 45//31 44//31 51//31 52//31
f 44//32 46//32 53//32 51//32
f 46//33 47//33 54//33 53//33
f 47//34 48//34 55//34 54//34
f 48//35 49//35 56//35 55//35
f 49//36 50//36 57//36 56//36
f 52//37 51//37 58//37 59//37
f 51//38 53//38 60//38 58//38
f 53//39 54//39 61//39 60//39
f 54//40 55//40 62//40 61//40
f 55//41 56//41 63//41 62//41
f 56//42 57//42 64//42 63//42
f 59//43 58//43 65//43 66//43
f 58//44 60//44 67//44 65//44
f 60//45 61//45 68//45 67//45
f 61//46 62//46 69//46 68//46
f 62//47 63//47 70//47 69//47
f 63//48 64//48 71//48 70//48
f 66//49 65//49 72//49 73//49
f 65//50 67//50 74//50 72//50
f 67//51 68//51 75//51 74//51
f 68//52 69//52 76//52 75//52
f 69//53 70//53 77//53 76//53
f 70//54 71//54 78//54 77//54
f 73//55 72//55 79//55 80//55
f 72//56 74//56 81//56 79//56
f 74//57 75//57 82//57 81//57
f 75//58 76//58 83//58 82//58
f 76//59 77//59 84//59 83//59
f 77//60 78//60 85//60 84//60
f 80//61 79//61 86//61 87//61
f 79//62 81//62 88//62 86//62
f 81//63 82//63 89//63 88//63
f 82//64 83//64 90//64 89//64
f 83//65 84//65 91//65 90//65
f 84//66 85//66 92//66 91//66
f 87//67 86//67 93//67 94//67
f 86//68 88//68 95//68 93//68
f 88//69 89//69 96//69 95//69
f 89//70 90//70 97//70 96//70
f 90//71 91//71 98//71 97//71
f 91//72 92//72 99//72 98//72
f 94//73 93//73 100//73 101//73
f 93//74 95//74 102//74 100//74
f 95//75 96//75 103//75 102//75
f 96//76 97//76 104//76 103//76
f 97//77 98//77 105//77 104//77
f 98//78 99//78 106//78 105//78
f 101//79 100//79 107//79 108//79
f 100//80 102//80 109//80 107//80
f 102//81 103//81 110//81 109//81
f 103//82 104//82 111//82 110//82
f 104//83 105//83 112//83 111//83
f 105//84 106//84 113//84 112//84
f 108//85 107//85 114//85 115//85
f 107//86 109//86 116//86 114//86
f 109//87 110//87 117//87 116//87
f 110//88 111//88 118//88 117//88
f 111//89 112//89 119//89 118//89
f 112//90 113//90 120//90 119//90
f 121//91 9//91 12//91
f 21//92 122//92 22//92
f 121//93 12//93 24//93
f 22//94 122//94 29//94
f 121//95 24//95 31//95
f 29//96 122//96 36//96
f 121//97 31//97 38//97
f 36//98 122//98 43//98
f 121//99 38//99 45//99
f 43//100 122//100 50//100
f 121//101 45//101 52//101
f 50//102 122//102 57//102
f 121//103 52//103 59//103
f 57//104 122//104 64//104
f 121//105 59//105 66//105
f 64//106 122//106 71//106
f 121//107 66//107 73//107
f 71//108 122//108 78//108
f 121//109 73//109 80//109
f 78//110 122//110 85//110
f 121//111 80//111 87//111
f 85//112 122//112 92//112
f 121//113 87//113 94//113
f 92//114 122//114 99//114
f 121//115 94//115 101//115
f 99//116 122//116 106//116
f 121//117 101//117 108//117
f 106//118 122//118 113//118
f 121//119 108//119 115//119
f 113//120 122//120 120//120
f 121//121 115//121 9//121
f 115//122 114//122 10//122 9//122
f 114//123 116//123 13//123 10//123
f 116//124 117//124 15//124 13//124
f 117//125 118//125 17//125 15//125
f 118//126 119//126 19//126 17//126
f 119//127 120//127 21//127 19//127
f 120//128 122//128 21//128
usemtl Material.004
s 1
f 5//129 6//129 7//129 8//129
usemtl Material.001
f 3//130 2//130 6//130 5//130
f 1//131 7//131 6//131 2//131
usemtl Material.003
f 1//132 2//132 3//132 4//132
